<svg data-v-423bf9ae="" xmlns="http://www.w3.org/2000/svg" viewBox="0 0 209.81250688713033 60" class="font"><!----><!----><defs data-v-423bf9ae=""><linearGradient data-v-423bf9ae="" gradientTransform="rotate(25)" id="caa5e2d1-6e52-43e9-b727-4df00cb1394f" x1="0%" y1="0%" x2="100%" y2="0%"><stop data-v-423bf9ae="" offset="0%" style="stop-color: rgb(0, 102, 120); stop-opacity: 1;"></stop><stop data-v-423bf9ae="" offset="100%" style="stop-color: rgb(79, 168, 255); stop-opacity: 1;"></stop></linearGradient></defs><g data-v-423bf9ae="" id="6486c2cd-e213-48d0-8bda-f44b4b711f01" fill="url(#caa5e2d1-6e52-43e9-b727-4df00cb1394f)" transform="matrix(4.687499930150808,0,0,4.687499930150808,-4.828123230719882,-13.125000296160586)"><path d="M1.03 4.37L1.03 2.95L2.45 2.95L2.45 4.37L1.03 4.37ZM1.08 12.61L1.08 5.78L2.40 5.78L2.40 12.61L1.08 12.61ZM8.67 12.74L8.67 12.74Q7.21 12.74 6.20 12.07L6.20 12.07L6.20 12.07Q5.19 11.40 4.69 10.27L4.69 10.27L4.69 10.27Q4.19 9.15 4.19 7.77L4.19 7.77L4.19 7.77Q4.19 6.40 4.69 5.27L4.69 5.27L4.69 5.27Q5.19 4.14 6.20 3.47L6.20 3.47L6.20 3.47Q7.21 2.80 8.67 2.80L8.67 2.80L8.67 2.80Q10.14 2.80 11.16 3.47L11.16 3.47L11.16 3.47Q12.17 4.14 12.67 5.27L12.67 5.27L12.67 5.27Q13.17 6.40 13.17 7.77L13.17 7.77L13.17 7.77Q13.17 9.15 12.67 10.27L12.67 10.27L12.67 10.27Q12.17 11.40 11.16 12.07L11.16 12.07L11.16 12.07Q10.14 12.74 8.67 12.74L8.67 12.74ZM8.67 11.49L8.67 11.49Q9.73 11.49 10.42 10.99L10.42 10.99L10.42 10.99Q11.12 10.48 11.43 9.64L11.43 9.64L11.43 9.64Q11.75 8.80 11.75 7.77L11.75 7.77L11.75 7.77Q11.75 6.75 11.43 5.91L11.43 5.91L11.43 5.91Q11.12 5.07 10.42 4.57L10.42 4.57L10.42 4.57Q9.73 4.06 8.67 4.06L8.67 4.06L8.67 4.06Q7.62 4.06 6.94 4.57L6.94 4.57L6.94 4.57Q6.25 5.07 5.93 5.91L5.93 5.91L5.93 5.91Q5.61 6.75 5.61 7.77L5.61 7.77L5.61 7.77Q5.61 8.80 5.93 9.64L5.93 9.64L5.93 9.64Q6.25 10.48 6.94 10.99L6.94 10.99L6.94 10.99Q7.62 11.49 8.67 11.49L8.67 11.49ZM17.52 12.74L17.52 12.74Q16.52 12.74 15.81 12.25L15.81 12.25L15.81 12.25Q15.11 11.76 14.75 10.95L14.75 10.95L14.75 10.95Q14.40 10.14 14.40 9.20L14.40 9.20L14.40 9.20Q14.40 8.26 14.75 7.45L14.75 7.45L14.75 7.45Q15.10 6.63 15.80 6.13L15.80 6.13L15.80 6.13Q16.51 5.63 17.51 5.63L17.51 5.63L17.51 5.63Q18.48 5.63 19.20 6.13L19.20 6.13L19.20 6.13Q19.93 6.62 20.30 7.54L20.30 7.54L19.05 8.05L19.05 8.05Q18.90 7.49 18.49 7.14L18.49 7.14L18.49 7.14Q18.07 6.80 17.51 6.80L17.51 6.80L17.51 6.80Q16.90 6.80 16.50 7.15L16.50 7.15L16.50 7.15Q16.11 7.50 15.92 8.04L15.92 8.04L15.92 8.04Q15.74 8.59 15.74 9.20L15.74 9.20L15.74 9.20Q15.74 9.82 15.92 10.36L15.92 10.36L15.92 10.36Q16.10 10.90 16.50 11.24L16.50 11.24L16.50 11.24Q16.89 11.58 17.51 11.58L17.51 11.58L17.51 11.58Q18.07 11.58 18.48 11.25L18.48 11.25L18.48 11.25Q18.90 10.91 19.05 10.36L19.05 10.36L20.23 10.83L20.23 10.83Q19.91 11.73 19.20 12.24L19.20 12.24L19.20 12.24Q18.48 12.74 17.52 12.74L17.52 12.74ZM21.68 4.34L21.68 2.95L23.13 2.95L23.13 4.34L21.68 4.34ZM21.21 15.60L21.21 15.60Q20.95 15.60 20.64 15.53L20.64 15.53L20.64 15.53Q20.32 15.47 20.10 15.38L20.10 15.38L20.41 14.30L20.41 14.30Q20.82 14.44 21.12 14.44L21.12 14.44L21.12 14.44Q21.44 14.44 21.58 14.22L21.58 14.22L21.58 14.22Q21.73 14.01 21.73 13.64L21.73 13.64L21.73 5.78L23.07 5.78L23.07 13.50L23.07 13.50Q23.07 14.44 22.61 15.02L22.61 15.02L22.61 15.02Q22.14 15.60 21.21 15.60L21.21 15.60ZM27.92 12.72L27.92 12.72Q26.86 12.72 26.12 12.24L26.12 12.24L26.12 12.24Q25.39 11.76 25.02 10.97L25.02 10.97L25.02 10.97Q24.66 10.18 24.66 9.22L24.66 9.22L24.66 9.22Q24.66 8.29 25.01 7.47L25.01 7.47L25.01 7.47Q25.36 6.66 26.07 6.16L26.07 6.16L26.07 6.16Q26.78 5.66 27.80 5.66L27.80 5.66L27.80 5.66Q28.88 5.66 29.56 6.16L29.56 6.16L29.56 6.16Q30.24 6.65 30.53 7.42L30.53 7.42L30.53 7.42Q30.82 8.19 30.82 9.04L30.82 9.04L30.82 9.04Q30.82 9.41 30.78 9.63L30.78 9.63L26.06 9.63L26.06 9.63Q26.11 10.48 26.57 11.01L26.57 11.01L26.57 11.01Q27.04 11.54 27.92 11.54L27.92 11.54L27.92 11.54Q28.47 11.54 28.91 11.37L28.91 11.37L28.91 11.37Q29.34 11.20 29.70 10.81L29.70 10.81L30.62 11.58L30.62 11.58Q30.06 12.17 29.40 12.44L29.40 12.44L29.40 12.44Q28.75 12.72 27.92 12.72L27.92 12.72ZM26.06 8.62L29.54 8.62L29.54 8.62Q29.49 7.79 29.06 7.27L29.06 7.27L29.06 7.27Q28.62 6.76 27.79 6.76L27.79 6.76L27.79 6.76Q27.00 6.76 26.57 7.28L26.57 7.28L26.57 7.28Q26.13 7.80 26.06 8.62L26.06 8.62ZM32.42 12.61L32.42 5.78L33.73 5.78L33.73 6.78L33.73 6.78Q34.10 6.23 34.65 5.94L34.65 5.94L34.65 5.94Q35.21 5.65 35.84 5.65L35.84 5.65L35.84 5.65Q36.65 5.65 37.19 6.03L37.19 6.03L37.19 6.03Q37.72 6.42 37.97 7.06L37.97 7.06L37.97 7.06Q38.22 7.70 38.22 8.48L38.22 8.48L38.22 12.61L36.91 12.61L36.91 8.63L36.91 8.63Q36.91 7.86 36.55 7.35L36.55 7.35L36.55 7.35Q36.20 6.83 35.47 6.83L35.47 6.83L35.47 6.83Q34.69 6.83 34.21 7.37L34.21 7.37L34.21 7.37Q33.73 7.92 33.73 8.97L33.73 8.97L33.73 12.61L32.42 12.61ZM42.89 12.72L42.89 12.72Q41.83 12.72 41.09 12.24L41.09 12.24L41.09 12.24Q40.36 11.76 39.99 10.97L39.99 10.97L39.99 10.97Q39.63 10.18 39.63 9.22L39.63 9.22L39.63 9.22Q39.63 8.29 39.98 7.47L39.98 7.47L39.98 7.47Q40.33 6.66 41.04 6.16L41.04 6.16L41.04 6.16Q41.75 5.66 42.77 5.66L42.77 5.66L42.77 5.66Q43.85 5.66 44.53 6.16L44.53 6.16L44.53 6.16Q45.21 6.65 45.50 7.42L45.50 7.42L45.50 7.42Q45.79 8.19 45.79 9.04L45.79 9.04L45.79 9.04Q45.79 9.41 45.75 9.63L45.75 9.63L41.03 9.63L41.03 9.63Q41.08 10.48 41.55 11.01L41.55 11.01L41.55 11.01Q42.01 11.54 42.89 11.54L42.89 11.54L42.89 11.54Q43.44 11.54 43.88 11.37L43.88 11.37L43.88 11.37Q44.31 11.20 44.67 10.81L44.67 10.81L45.59 11.58L45.59 11.58Q45.03 12.17 44.38 12.44L44.38 12.44L44.38 12.44Q43.72 12.72 42.89 12.72L42.89 12.72ZM41.03 8.62L44.51 8.62L44.51 8.62Q44.46 7.79 44.03 7.27L44.03 7.27L44.03 7.27Q43.59 6.76 42.77 6.76L42.77 6.76L42.77 6.76Q41.97 6.76 41.54 7.28L41.54 7.28L41.54 7.28Q41.10 7.80 41.03 8.62L41.03 8.62Z"></path></g><!----><!----></svg>